<svg width="70" height="48" viewBox="0 0 70 48" fill="none" xmlns="http://www.w3.org/2000/svg">
<path d="M67.7068 7.51038C66.9217 4.55412 64.6084 2.22587 61.6713 1.43575C56.3475 0 34.9999 0 34.9999 0C34.9999 0 13.6524 0 8.32853 1.43575C5.39141 2.226 3.07816 4.55412 2.29303 7.51038C0.866531 12.8687 0.866531 24.0485 0.866531 24.0485C0.866531 24.0485 0.866531 35.2282 2.29303 40.5866C3.07816 43.5429 5.39141 45.7741 8.32853 46.5643C13.6524 48 34.9999 48 34.9999 48C34.9999 48 56.3474 48 61.6713 46.5643C64.6084 45.7741 66.9217 43.5429 67.7068 40.5866C69.1333 35.2282 69.1333 24.0485 69.1333 24.0485C69.1333 24.0485 69.1333 12.8687 67.7068 7.51038ZM28.018 34.1989V13.8981L45.8604 24.0488L28.018 34.1989Z" fill="black"/>
</svg>
