<svg width="56" height="56" viewBox="0 0 56 56" fill="none" xmlns="http://www.w3.org/2000/svg">
<path d="M52 0H3.9875C1.7875 0 0 1.8125 0 4.0375V51.9625C0 54.1875 1.7875 56 3.9875 56H52C54.2 56 56 54.1875 56 51.9625V4.0375C56 1.8125 54.2 0 52 0ZM16.925 48H8.625V21.275H16.9375V48H16.925ZM12.775 17.625C10.1125 17.625 7.9625 15.4625 7.9625 12.8125C7.9625 10.1625 10.1125 8 12.775 8C15.425 8 17.5875 10.1625 17.5875 12.8125C17.5875 15.475 15.4375 17.625 12.775 17.625ZM48.0375 48H39.7375V35C39.7375 31.9 39.675 27.9125 35.425 27.9125C31.1 27.9125 30.4375 31.2875 30.4375 34.775V48H22.1375V21.275H30.1V24.925H30.2125C31.325 22.825 34.0375 20.6125 38.075 20.6125C46.475 20.6125 48.0375 26.15 48.0375 33.35V48Z" fill="black"/>
</svg>
