<svg width="64" height="52" viewBox="0 0 64 52" fill="none" xmlns="http://www.w3.org/2000/svg">
<path d="M57.4212 12.9645C57.4619 13.533 57.4619 14.1016 57.4619 14.6701C57.4619 32.0101 44.264 51.9899 20.1421 51.9899C12.7106 51.9899 5.80713 49.8375 0 46.1016C1.05587 46.2234 2.071 46.264 3.1675 46.264C9.29938 46.264 14.9441 44.193 19.4517 40.66C13.6852 40.5381 8.85275 36.7615 7.18775 31.5635C8 31.6853 8.81213 31.7665 9.665 31.7665C10.8426 31.7665 12.0204 31.604 13.1167 31.3199C7.10662 30.1015 2.59888 24.8224 2.59888 18.4468V18.2844C4.345 19.259 6.37563 19.8681 8.52775 19.9493C4.99475 17.5939 2.68012 13.5736 2.68012 9.02538C2.68012 6.58888 3.32975 4.35538 4.46688 2.40613C10.9237 10.3655 20.6294 15.5634 31.5125 16.132C31.3095 15.1574 31.1876 14.1423 31.1876 13.127C31.1876 5.8985 37.0354 0.0102539 44.3044 0.0102539C48.081 0.0102539 51.4921 1.594 53.8881 4.15238C56.8525 3.58388 59.6951 2.48738 62.213 0.984879C61.2383 4.03063 59.1672 6.589 56.4465 8.21325C59.0861 7.92913 61.6445 7.198 63.9997 6.18288C62.2132 8.78175 59.9796 11.0964 57.4212 12.9645Z" fill="black"/>
</svg>
