<svg width="62" height="62" viewBox="0 0 62 62" fill="none" xmlns="http://www.w3.org/2000/svg">
<path d="M62 31C62 48.125 48.125 62 31 62C27.8 62 24.725 61.5125 21.825 60.6125C23.0875 58.55 24.975 55.175 25.675 52.4875C26.05 51.0375 27.6 45.1125 27.6 45.1125C28.6125 47.0375 31.5625 48.675 34.7 48.675C44.05 48.675 50.7875 40.075 50.7875 29.3875C50.7875 19.15 42.425 11.4875 31.675 11.4875C18.3 11.4875 11.1875 20.4625 11.1875 30.25C11.1875 34.8 13.6125 40.4625 17.475 42.2625C18.0625 42.5375 18.375 42.4125 18.5125 41.85C18.6125 41.425 19.1375 39.3125 19.375 38.3375C19.45 38.025 19.4125 37.75 19.1625 37.45C17.9 35.8875 16.875 33.0375 16.875 30.375C16.875 23.5375 22.05 16.925 30.875 16.925C38.4875 16.925 43.825 22.1125 43.825 29.5375C43.825 37.925 39.5875 43.7375 34.075 43.7375C31.0375 43.7375 28.75 41.225 29.4875 38.1375C30.3625 34.45 32.05 30.475 32.05 27.8125C32.05 25.4375 30.775 23.45 28.125 23.45C25.0125 23.45 22.5125 26.6625 22.5125 30.975C22.5125 33.725 23.4375 35.575 23.4375 35.575C23.4375 35.575 20.375 48.55 19.8125 50.975C19.1875 53.65 19.4375 57.425 19.7 59.875C8.175 55.3625 0 44.1375 0 31C0 13.875 13.875 0 31 0C48.125 0 62 13.875 62 31Z" fill="black"/>
</svg>
